<svg xmlns="http://www.w3.org/2000/svg" width="119" height="119" viewBox="0 0 119 119">
  <g id="advanced_form_" data-name="advanced form " transform="translate(-30 -31)">
    <g id="Group_1" data-name="Group 1" opacity="0">
      <rect id="Rectangle_1" data-name="Rectangle 1" width="119" height="119" transform="translate(30 31)" fill="#fff"/>
    </g>
    <g id="Group_313" data-name="Group 313" transform="translate(-196 -1192)">
      <g id="Rectangle_34" data-name="Rectangle 34" transform="translate(250 1236)" fill="#fff" stroke="#b3b3b3" stroke-width="2">
        <rect width="76.289" height="90" rx="8" stroke="none"/>
        <rect x="1" y="1" width="74.289" height="88" rx="7" fill="none"/>
      </g>
      <g id="Group_279" data-name="Group 279" transform="translate(262.466 1255.474)">
        <line id="Line_5" data-name="Line 5" x2="37.672" transform="translate(15.151 3.685)" fill="none" stroke="#b3b3b3" stroke-width="2"/>
        <line id="Line_6" data-name="Line 6" x2="37.672" transform="translate(15.151 20.884)" fill="none" stroke="#b3b3b3" stroke-width="2"/>
        <line id="Line_7" data-name="Line 7" x2="37.672" transform="translate(15.151 38.082)" fill="none" stroke="#b3b3b3" stroke-width="2"/>
        <line id="Line_8" data-name="Line 8" x2="37.672" transform="translate(15.151 55.28)" fill="none" stroke="#b3b3b3" stroke-width="2"/>
        <g id="Ellipse_8" data-name="Ellipse 8" transform="translate(-0.466 -0.474)" fill="#fff" stroke="#b3b3b3" stroke-width="2">
          <circle cx="3.5" cy="3.5" r="3.5" stroke="none"/>
          <circle cx="3.5" cy="3.5" r="2.5" fill="none"/>
        </g>
        <g id="Ellipse_9" data-name="Ellipse 9" transform="translate(-0.466 17.526)" fill="#fff" stroke="#b3b3b3" stroke-width="2">
          <circle cx="3.5" cy="3.5" r="3.5" stroke="none"/>
          <circle cx="3.5" cy="3.5" r="2.5" fill="none"/>
        </g>
        <g id="Ellipse_10" data-name="Ellipse 10" transform="translate(-0.466 34.526)" fill="#fff" stroke="#b3b3b3" stroke-width="2">
          <circle cx="3.5" cy="3.5" r="3.5" stroke="none"/>
          <circle cx="3.5" cy="3.5" r="2.5" fill="none"/>
        </g>
        <g id="Ellipse_11" data-name="Ellipse 11" transform="translate(-0.466 51.526)" fill="#fff" stroke="#b3b3b3" stroke-width="2">
          <circle cx="3.5" cy="3.5" r="3.5" stroke="none"/>
          <circle cx="3.5" cy="3.5" r="2.5" fill="none"/>
        </g>
      </g>
      <rect id="Rectangle_16" data-name="Rectangle 16" width="29" height="7" transform="translate(271 1235)" fill="#b3b3b3"/>
    </g>
  </g>
</svg>
