<svg xmlns="http://www.w3.org/2000/svg" width="119" height="119" viewBox="0 0 119 119">
  <g id="audio_player" data-name="audio player" transform="translate(-30 -31)">
    <g id="Group_1" data-name="Group 1" opacity="0">
      <rect id="Rectangle_1" data-name="Rectangle 1" width="119" height="119" transform="translate(30 31)" fill="#fff"/>
    </g>
    <g id="Layer_x0020_1" transform="translate(51.344 58.001)">
      <g id="_2093914312288" transform="translate(0 -0.003)">
        <path id="Path_6067" data-name="Path 6067" d="M0,17.408V47.678A2.644,2.644,0,0,0,1.787,49.93c1.955.633,14.874-.2,16.214.316L41.439,64.3c2.811,1.731,4.505-.019,4.505-2.383V3.13c0-2.178-1.452-3.314-2.923-3.109a3.445,3.445,0,0,0-1.471.652L18.244,14.69c-1.359.726-14.129-.223-16.326.41A2.626,2.626,0,0,0,0,17.408Z" transform="translate(0 0.003)" fill="none" stroke="#b3b3b3" stroke-width="2" fill-rule="evenodd"/>
        <path id="Path_6068" data-name="Path 6068" d="M32.257,4.973c0,1.992.614,2.011,2.681,4.356a32.55,32.55,0,0,1,1.08,40.248c-.354.447-.6.763-.931,1.173-1.917,2.364-2.848,2.346-2.848,4.542a2.476,2.476,0,0,0,3.016,2.141c1.564-.335,4.375-4.151,5.436-5.659l1.694-2.532a37.726,37.726,0,0,0,3.723-29.469,41.824,41.824,0,0,0-1.4-4.058c-1.9-4.635-3.593-6.7-6.422-10.313-.633-.8-1.88-2.327-2.9-2.569C33.97,2.5,32.22,3.409,32.22,4.954Z" transform="translate(27.76 2.385)" fill="none" stroke="#b3b3b3" stroke-width="2" fill-rule="evenodd"/>
        <path id="Path_6069" data-name="Path 6069" d="M27.709,9.541c0,2.792,2.048,2.495,4.393,7.223,3.779,7.614,2.9,15.544-2.141,22.339-1.322,1.787-2.271,1.638-2.271,3.891a2.646,2.646,0,0,0,2.457,2.29c2.215,0,5.492-5.157,6.4-6.981a26.631,26.631,0,0,0,1.936-4.747,25.941,25.941,0,0,0-3.76-22.246c-.819-1.173-2.96-4.04-4.393-4.04A2.6,2.6,0,0,0,27.69,9.56Z" transform="translate(23.857 6.269)" fill="none" stroke="#b3b3b3" stroke-width="2" fill-rule="evenodd"/>
      </g>
    </g>
  </g>
</svg>
