<svg xmlns="http://www.w3.org/2000/svg" width="119" height="119" viewBox="0 0 119 119">
  <g id="bullet_list" data-name="bullet list" transform="translate(-30 -31)">
    <g id="Group_1" data-name="Group 1" opacity="0">
      <rect id="Rectangle_1" data-name="Rectangle 1" width="119" height="119" transform="translate(30 31)" fill="#fff"/>
    </g>
    <g id="Ellipse_1" data-name="Ellipse 1" transform="translate(33 54)" fill="#fff" stroke="#b3b3b3" stroke-width="2">
      <circle cx="9.5" cy="9.5" r="9.5" stroke="none"/>
      <circle cx="9.5" cy="9.5" r="8.5" fill="none"/>
    </g>
    <g id="Ellipse_2" data-name="Ellipse 2" transform="translate(33 81)" fill="#fff" stroke="#b3b3b3" stroke-width="2">
      <circle cx="9.5" cy="9.5" r="9.5" stroke="none"/>
      <circle cx="9.5" cy="9.5" r="8.5" fill="none"/>
    </g>
    <g id="Ellipse_3" data-name="Ellipse 3" transform="translate(33 108)" fill="#fff" stroke="#b3b3b3" stroke-width="2">
      <circle cx="9.5" cy="9.5" r="9.5" stroke="none"/>
      <circle cx="9.5" cy="9.5" r="8.5" fill="none"/>
    </g>
    <g id="Rectangle_11" data-name="Rectangle 11" transform="translate(56 57)" fill="#fff" stroke="#b3b3b3" stroke-width="2">
      <rect width="90" height="14" rx="7" stroke="none"/>
      <rect x="1" y="1" width="88" height="12" rx="6" fill="none"/>
    </g>
    <g id="Rectangle_12" data-name="Rectangle 12" transform="translate(56 84)" fill="#fff" stroke="#b3b3b3" stroke-width="2">
      <rect width="90" height="14" rx="7" stroke="none"/>
      <rect x="1" y="1" width="88" height="12" rx="6" fill="none"/>
    </g>
    <g id="Rectangle_13" data-name="Rectangle 13" transform="translate(56 111)" fill="#fff" stroke="#b3b3b3" stroke-width="2">
      <rect width="90" height="14" rx="7" stroke="none"/>
      <rect x="1" y="1" width="88" height="12" rx="6" fill="none"/>
    </g>
  </g>
</svg>
