<svg xmlns="http://www.w3.org/2000/svg" width="119" height="119" viewBox="0 0 119 119">
  <g id="button" transform="translate(-30 -31)">
    <g id="Group_1" data-name="Group 1" opacity="0">
      <rect id="Rectangle_1" data-name="Rectangle 1" width="119" height="119" transform="translate(30 31)" fill="#fff"/>
    </g>
    <path id="Path_6276" data-name="Path 6276" d="M24.227,40.763V23.623a11.457,11.457,0,1,1,22.915,0v17.14a20.623,20.623,0,1,0-22.915,0Zm45.1,21.219L48.517,51.625a6.454,6.454,0,0,0-2.475-.5H42.559v-27.5a6.874,6.874,0,1,0-13.749,0V72.844l-15.719-3.3a8.011,8.011,0,0,0-1.1-.137,5.127,5.127,0,0,0-3.621,1.512L4.75,74.586l22.64,22.64a6.9,6.9,0,0,0,4.858,2.016H63.366a6.675,6.675,0,0,0,6.6-5.866L73.4,69.223a6.587,6.587,0,0,0-4.079-7.241Z" transform="translate(50.378 39.379)" fill="none" stroke="#b3b3b3" stroke-width="2"/>
  </g>
</svg>
