<svg xmlns="http://www.w3.org/2000/svg" width="119" height="119" viewBox="0 0 119 119">
  <g id="divider" transform="translate(-30 -31)">
    <g id="Group_1" data-name="Group 1" opacity="0">
      <rect id="Rectangle_1" data-name="Rectangle 1" width="119" height="119" transform="translate(30 31)" fill="#fff"/>
    </g>
    <g id="Group_322" data-name="Group 322" transform="translate(3 -892)">
      <g id="Group_274" data-name="Group 274" transform="translate(-164 226)">
        <g id="Group_271" data-name="Group 271" transform="translate(417 44)">
          <g id="Subtraction_1" data-name="Subtraction 1" transform="translate(-212 680)" fill="none">
            <path d="M80,65H12A12,12,0,0,1,0,53V12A12,12,0,0,1,12,0H80A12,12,0,0,1,92,12V53A12,12,0,0,1,80,65Z" stroke="none"/>
            <path d="M 80.00009918212891 62.99980926513672 C 82.67128753662109 62.99980926513672 85.18248748779297 61.95970153808594 87.07109069824219 60.07108688354492 C 88.95970153808594 58.18247604370117 89.99980926513672 55.67128753662109 89.99980926513672 53.00009918212891 L 89.99980926513672 11.99970054626465 C 89.99980926513672 9.328834533691406 88.95968627929688 6.81775426864624 87.071044921875 4.929007530212402 C 85.18235778808594 3.040207386016846 82.67118072509766 2.000007390975952 80.00009918212891 2.000007390975952 L 11.99970054626465 2.000007390975952 C 9.328940391540527 2.000007390975952 6.817873954772949 3.040220737457275 4.929047584533691 4.929047584533691 C 3.040220737457275 6.817873954772949 2.000007390975952 9.328940391540527 2.000007390975952 11.99970054626465 L 2.000007390975952 53.00009918212891 C 2.000007390975952 55.67118072509766 3.040207386016846 58.18235397338867 4.929007530212402 60.07104873657227 C 6.81775426864624 61.95968627929688 9.328834533691406 62.99980926513672 11.99970054626465 62.99980926513672 L 80.00009918212891 62.99980926513672 M 80.00009918212891 64.99980926513672 L 11.99970054626465 64.99980926513672 C 8.794620513916016 64.99980926513672 5.781314373016357 63.75165939331055 3.51483416557312 61.48530197143555 C 1.248260855674744 59.21884918212891 7.484537945856573e-06 56.20542144775391 7.484537945856573e-06 53.00009918212891 L 7.484537945856573e-06 11.99970054626465 C 7.484537945856573e-06 8.794740676879883 1.248260855674744 5.781407356262207 3.51483416557312 3.51483416557312 C 5.781407356262207 1.248260855674744 8.794740676879883 7.484537945856573e-06 11.99970054626465 7.484537945856573e-06 L 80.00009918212891 7.484537945856573e-06 C 83.20542144775391 7.484537945856573e-06 86.21884918212891 1.248260855674744 88.48529815673828 3.51483416557312 C 90.75166320800781 5.781314373016357 91.99980926513672 8.794620513916016 91.99980926513672 11.99970054626465 L 91.99980926513672 53.00009918212891 C 91.99980926513672 56.20551300048828 90.75166320800781 59.21894073486328 88.48529815673828 61.48530197143555 C 86.21895599365234 63.75165939331055 83.20551300048828 64.99980926513672 80.00009918212891 64.99980926513672 Z" stroke="none" fill="#b3b3b3"/>
          </g>
        </g>
      </g>
      <line id="Line_31" data-name="Line 31" x2="43" transform="translate(65.5 982.5)" fill="none" stroke="#b3b3b3" stroke-width="2"/>
    </g>
  </g>
</svg>
