<svg xmlns="http://www.w3.org/2000/svg" width="119" height="119" viewBox="0 0 119 119">
  <g id="facebook_optin" data-name="facebook optin" transform="translate(-30 -31)">
    <g id="Group_1" data-name="Group 1" opacity="0">
      <rect id="Rectangle_1" data-name="Rectangle 1" width="119" height="119" transform="translate(30 31)" fill="#fff"/>
    </g>
    <g id="FACEBOOK_OPTIN-2" data-name="FACEBOOK OPTIN" transform="translate(-4 -901)">
      <path id="facebook-f" d="M4.955,33.077V18.283H0V12.4H4.955V7.772C4.955,2.739,8.03,0,12.52,0a41.6,41.6,0,0,1,4.535.233V5.491H13.941c-2.442,0-2.914,1.163-2.914,2.862V12.4h5.511l-.756,5.879H11.028V33.077" transform="translate(110.827 993.782)" fill="none" stroke="#b3b3b3" stroke-width="2"/>
      <g id="Group_274" data-name="Group 274" transform="translate(-164 226)">
        <g id="Group_271" data-name="Group 271" transform="translate(417 44)">
          <g id="Subtraction_1" data-name="Subtraction 1" transform="translate(-212 680)" fill="none">
            <path d="M57.79,65H12A12,12,0,0,1,0,53V12A12,12,0,0,1,12,0H80A12,12,0,0,1,92,12V39.375A23.013,23.013,0,0,0,57.79,65Z" stroke="none"/>
            <path d="M 57.78883361816406 66.99980926513672 L 57.78948593139648 64.99997711181641 L 57.78883361816406 66.99980926513672 M 55.31853866577148 62.99980926513672 C 55.10657119750977 61.68195343017578 54.99970245361328 60.34432220458984 54.99970245361328 59.00040817260742 C 54.99970245361328 45.21512603759766 66.21483612060547 33.99999237060547 80.00009918212891 33.99999237060547 C 83.46144104003906 33.99999237060547 86.86297607421875 34.71313858032227 89.99980926513672 36.08189392089844 L 89.99980926513672 11.99970054626465 C 89.99980926513672 9.328834533691406 88.95968627929688 6.81775426864624 87.071044921875 4.929007530212402 C 85.18235778808594 3.040207386016846 82.67118072509766 2.000007390975952 80.00009918212891 2.000007390975952 L 11.99970054626465 2.000007390975952 C 9.328940391540527 2.000007390975952 6.817873954772949 3.040220737457275 4.929047584533691 4.929047584533691 C 3.040220737457275 6.817873954772949 2.000007390975952 9.328940391540527 2.000007390975952 11.99970054626465 L 2.000007390975952 53.00009918212891 C 2.000007390975952 55.67118072509766 3.040207386016846 58.18235397338867 4.929007530212402 60.07104873657227 C 6.81775426864624 61.95968627929688 9.328834533691406 62.99980926513672 11.99970054626465 62.99980926513672 L 55.31853866577148 62.99980926513672 M 57.79014205932617 64.99980926513672 L 57.78883361816406 64.99980926513672 L 57.79014205932617 64.99980926513672 Z M 57.79014205932617 64.99980926513672 L 11.99970054626465 64.99980926513672 C 8.794620513916016 64.99980926513672 5.781314373016357 63.75165939331055 3.51483416557312 61.48530197143555 C 1.248260855674744 59.21884918212891 7.484537945856573e-06 56.20542144775391 7.484537945856573e-06 53.00009918212891 L 7.484537945856573e-06 11.99970054626465 C 7.484537945856573e-06 8.794740676879883 1.248260855674744 5.781407356262207 3.51483416557312 3.51483416557312 C 5.781407356262207 1.248260855674744 8.794740676879883 7.484537945856573e-06 11.99970054626465 7.484537945856573e-06 L 80.00009918212891 7.484537945856573e-06 C 83.20542144775391 7.484537945856573e-06 86.21884918212891 1.248260855674744 88.48529815673828 3.51483416557312 C 90.75166320800781 5.781314373016357 91.99980926513672 8.794620513916016 91.99980926513672 11.99970054626465 L 91.99980926513672 39.37474060058594 C 88.39762115478516 37.16725921630859 84.24871063232422 35.99999237060547 80.00009918212891 35.99999237060547 C 67.31763458251953 35.99999237060547 56.99970245361328 46.31793975830078 56.99970245361328 59.00040817260742 C 56.99970245361328 61.03456878662109 57.26552581787109 63.05263519287109 57.7898063659668 64.99854278564453 L 57.79014205932617 64.99980926513672 Z" stroke="none" fill="#b3b3b3"/>
          </g>
          <g id="Ellipse_7" data-name="Ellipse 7" transform="translate(-157 714)" fill="none" stroke="#b3b3b3" stroke-width="2">
            <circle cx="25" cy="25" r="25" stroke="none"/>
            <circle cx="25" cy="25" r="24" fill="none"/>
          </g>
        </g>
      </g>
    </g>
  </g>
</svg>
