<svg xmlns="http://www.w3.org/2000/svg" width="119" height="119" viewBox="0 0 119 119">
  <g id="faq" transform="translate(-30 -31)">
    <g id="Group_1" data-name="Group 1" opacity="0">
      <rect id="Rectangle_1" data-name="Rectangle 1" width="119" height="119" transform="translate(30 31)" fill="#fff"/>
    </g>
    <path id="Path_6277" data-name="Path 6277" d="M20.773,3.411A26.46,26.46,0,0,1,22.731-7a29.589,29.589,0,0,1,6.952-8.825,55.841,55.841,0,0,0,7.151-7.657,20.705,20.705,0,0,0,2.98-6.006,26.2,26.2,0,0,0,.936-7.479q0-8.216-4.37-12.919t-12.032-4.7q-8.173,0-12.855,4.865a17.686,17.686,0,0,0-4.8,12.5H3.633q.114-9.194,5.959-14.813a20.436,20.436,0,0,1,14.756-5.619q8.91,0,14.189,5.619t5.278,15.153a25.49,25.49,0,0,1-2.554,11.606Q38.707-20.2,31.329-13.5,23.837-7.656,23.837,3.411ZM19.411,23.332a3.107,3.107,0,0,1,.908-2.242,2.966,2.966,0,0,1,2.213-.936,3.2,3.2,0,0,1,3.178,3.178,2.966,2.966,0,0,1-.936,2.213,3.107,3.107,0,0,1-2.242.908,3.1,3.1,0,0,1-3.121-3.121Z" transform="translate(65.776 106.101)" fill="#b3b3b3"/>
  </g>
</svg>
