<svg xmlns="http://www.w3.org/2000/svg" width="119" height="119" viewBox="0 0 119 119">
  <g id="image" transform="translate(-30 -31)">
    <g id="Group_1" data-name="Group 1" opacity="0">
      <rect id="Rectangle_1" data-name="Rectangle 1" width="119" height="119" transform="translate(30 31)" fill="#fff"/>
    </g>
    <g id="outline-image-24px" transform="translate(33 34)">
      <g id="Outline_1_" transform="translate(14.125 14.125)">
        <g id="Group_264" data-name="Group 264">
          <path id="XMLID_53_" d="M12.417,3A9.444,9.444,0,0,0,3,12.417V78.333a9.444,9.444,0,0,0,9.417,9.417H78.333a9.444,9.444,0,0,0,9.417-9.417V12.417A9.444,9.444,0,0,0,78.333,3Z" transform="translate(-3 -3)" fill="none" stroke="#b3b3b3" stroke-width="2"/>
        </g>
      </g>
      <g id="Group_265" data-name="Group 265" transform="translate(-161 -763)">
        <line id="Line_1" data-name="Line 1" y1="57" x2="39" transform="translate(192.5 804.5)" fill="none" stroke="#b3b3b3" stroke-linecap="round" stroke-width="2"/>
        <line id="Line_4" data-name="Line 4" y1="18" x2="20" transform="translate(175.5 805.5)" fill="none" stroke="#b3b3b3" stroke-linecap="round" stroke-width="2"/>
        <line id="Line_2" data-name="Line 2" x2="28" y2="25" transform="translate(231.5 804.5)" fill="none" stroke="#b3b3b3" stroke-linecap="round" stroke-width="2"/>
        <line id="Line_3" data-name="Line 3" x2="19" y2="23" transform="translate(195.5 805.5)" fill="none" stroke="#b3b3b3" stroke-linecap="round" stroke-width="2"/>
      </g>
      <g id="Ellipse_4" data-name="Ellipse 4" transform="translate(45 27)" fill="#fff" stroke="#b3b3b3" stroke-width="2">
        <circle cx="7.5" cy="7.5" r="7.5" stroke="none"/>
        <circle cx="7.5" cy="7.5" r="6.5" fill="none"/>
      </g>
    </g>
  </g>
</svg>
