<svg xmlns="http://www.w3.org/2000/svg" width="119" height="119" viewBox="0 0 119 119">
  <g id="image_feture" data-name="image feture" transform="translate(-30 -31)">
    <g id="Group_1" data-name="Group 1" opacity="0">
      <rect id="Rectangle_1" data-name="Rectangle 1" width="119" height="119" transform="translate(30 31)" fill="#fff"/>
    </g>
    <g id="Group_321" data-name="Group 321" transform="translate(-259.191 -1375.838)">
      <g id="outline-image-24px" transform="translate(298 1425.771)">
        <g id="Outline_1_" transform="translate(0 0)">
          <g id="Group_264" data-name="Group 264">
            <path id="XMLID_53_" d="M12.48,3C7.266,3,3,6.176,3,10.058V59.464c0,3.882,4.266,7.058,9.48,7.058H78.844c5.214,0,9.48-3.176,9.48-7.058V10.058C88.324,6.176,84.058,3,78.844,3Z" transform="translate(-3 -3)" fill="none" stroke="#b3b3b3" stroke-width="2"/>
          </g>
        </g>
        <g id="Group_265" data-name="Group 265" transform="translate(0.333 12.204)">
          <line id="Line_1" data-name="Line 1" y1="50.985" x2="40.786" transform="translate(18.884 0)" fill="none" stroke="#b3b3b3" stroke-linecap="round" stroke-width="2"/>
          <line id="Line_4" data-name="Line 4" y1="16.001" x2="17.779" transform="translate(0 1.204)" fill="none" stroke="#b3b3b3" stroke-linecap="round" stroke-width="2"/>
          <line id="Line_2" data-name="Line 2" x2="24.891" y2="22.224" transform="translate(59.767 0.315)" fill="none" stroke="#b3b3b3" stroke-linecap="round" stroke-width="2"/>
          <line id="Line_3" data-name="Line 3" x2="21.335" y2="22.224" transform="translate(17.89 1.778)" fill="none" stroke="#b3b3b3" stroke-linecap="round" stroke-width="2"/>
        </g>
        <g id="Ellipse_4" data-name="Ellipse 4" transform="translate(31.866 9.825)" fill="#fff" stroke="#b3b3b3" stroke-width="2">
          <circle cx="6.667" cy="6.667" r="6.667" stroke="none"/>
          <circle cx="6.667" cy="6.667" r="5.667" fill="none"/>
        </g>
      </g>
      <g id="Ellipse_14" data-name="Ellipse 14" transform="translate(355.347 1462.871)" fill="#fff" stroke="#b3b3b3" stroke-width="2">
        <circle cx="22.017" cy="22.017" r="22.017" stroke="none"/>
        <circle cx="22.017" cy="22.017" r="21.017" fill="none"/>
      </g>
      <g id="shape-04" transform="translate(362.515 1470.04)">
        <g id="Group_1-2" data-name="Group 1" transform="translate(0 0)" opacity="0">
          <rect id="Rectangle_1-2" data-name="Rectangle 1" width="28.674" height="28.674" fill="#fff"/>
        </g>
        <path id="Path_6063" data-name="Path 6063" d="M18.057-86.066H6.863L4.323-79.14H2.139L11.47-103.8h1.981L22.782-79.14H20.614ZM7.507-87.827H17.4l-4.945-13.429Z" transform="translate(2.052 106.004)" fill="#b3b3b3"/>
      </g>
    </g>
  </g>
</svg>
