<svg xmlns="http://www.w3.org/2000/svg" width="119" height="119" viewBox="0 0 119 119">
  <g id="image_list" data-name="image list" transform="translate(-30 -31)">
    <g id="Group_1" data-name="Group 1" opacity="0">
      <rect id="Rectangle_1" data-name="Rectangle 1" width="119" height="119" transform="translate(30 31)" fill="#fff"/>
    </g>
    <g id="Group_324" data-name="Group 324" transform="translate(-4 -1271.367)">
      <g id="Group_285" data-name="Group 285" transform="translate(-136.65 510.799)">
        <path id="file-alt" d="M67.7,23.254V81.8a8.465,8.465,0,0,1-8.462,8.462H8.462A8.465,8.465,0,0,1,0,81.8V8.462A8.465,8.465,0,0,1,8.462,0H44.445a8.463,8.463,0,0,1,5.977,2.486L65.213,17.277A8.432,8.432,0,0,1,67.7,23.254ZM50.062,3.4V16.815H63.479l-3.24-3.24L50.062,3.4Z" transform="translate(196.301 805.934)" fill="none" stroke="#b3b3b3" stroke-width="2"/>
        <g id="Rectangle_15" data-name="Rectangle 15" transform="translate(220 833.557)" fill="none" stroke="#b3b3b3" stroke-width="2">
          <rect width="36" height="11" rx="2" stroke="none"/>
          <rect x="1" y="1" width="34" height="9" rx="1" fill="none"/>
        </g>
        <g id="Rectangle_19" data-name="Rectangle 19" transform="translate(220 850.557)" fill="none" stroke="#b3b3b3" stroke-width="2">
          <rect width="36" height="11" rx="2" stroke="none"/>
          <rect x="1" y="1" width="34" height="9" rx="1" fill="none"/>
        </g>
        <g id="Rectangle_20" data-name="Rectangle 20" transform="translate(220 867.557)" fill="none" stroke="#b3b3b3" stroke-width="2">
          <rect width="36" height="11" rx="2" stroke="none"/>
          <rect x="1" y="1" width="34" height="9" rx="1" fill="none"/>
        </g>
      </g>
      <path id="Path_6079" data-name="Path 6079" d="M162.779,1178.308l2.171,2.086,5.187-5.027" transform="translate(-94.63 171.49)" fill="none" stroke="#b3b3b3" stroke-width="2"/>
      <path id="Path_6080" data-name="Path 6080" d="M162.779,1178.308l2.171,2.086,5.187-5.027" transform="translate(-94.63 188.49)" fill="none" stroke="#b3b3b3" stroke-width="2"/>
      <path id="Path_6087" data-name="Path 6087" d="M162.779,1178.308l2.171,2.086,5.187-5.027" transform="translate(-94.63 206.49)" fill="none" stroke="#b3b3b3" stroke-width="2"/>
    </g>
  </g>
</svg>
