<svg xmlns="http://www.w3.org/2000/svg" width="119" height="119" viewBox="0 0 119 119">
  <g id="image_poup" data-name="image poup" transform="translate(-30 -31)">
    <g id="Group_1" data-name="Group 1" opacity="0">
      <rect id="Rectangle_1" data-name="Rectangle 1" width="119" height="119" transform="translate(30 31)" fill="#fff"/>
    </g>
    <g id="Layer_x0020_1" transform="translate(33.636 34.646)">
      <g id="_2093203085696" transform="translate(12.17 12.18)">
        <path id="Path_8" data-name="Path 8" d="M9.165,74.746V29.421H79.011V75.547c0,4.349-3.605,7.726-8.527,7.726H16.919c-4.464,0-7.726-3.691-7.726-8.527Zm0-52.764a8.567,8.567,0,0,1,2.06-5.923,8.033,8.033,0,0,1,5.666-2.6H71.257a7.8,7.8,0,0,1,7.726,7.726v5.065H9.136V21.982Zm-3.2-1.345V76.09c0,5.265,5.122,10.387,10.387,10.387H71.8c5.265,0,10.387-5.122,10.387-10.387V20.637c0-5.265-5.122-10.387-10.387-10.387H16.347c-5.265,0-10.387,5.122-10.387,10.387Z" transform="translate(-5.96 2.025)" fill="#b3b3b3" fill-rule="evenodd"/>
        <path id="Path_9" data-name="Path 9" d="M17.14,7.3c0,1.459.172.916.8,1.86H57.114c15.766,0,13.334-1.459,13.334,26.124V61.671c.944.63.429.8,1.86.8a1.521,1.521,0,0,0,1.345-1.345V13.943A8.238,8.238,0,0,0,65.669,5.96H18.485A1.521,1.521,0,0,0,17.14,7.3Z" transform="translate(14.85 -5.96)" fill="#b3b3b3" fill-rule="evenodd"/>
      </g>
    </g>
  </g>
</svg>
