<svg xmlns="http://www.w3.org/2000/svg" width="119" height="119" viewBox="0 0 119 119">
  <g id="privacy_notice" data-name="privacy notice" transform="translate(-30 -31)">
    <g id="Group_1" data-name="Group 1" opacity="0">
      <rect id="Rectangle_1" data-name="Rectangle 1" width="119" height="119" transform="translate(30 31)" fill="#fff"/>
    </g>
    <g id="Group_327" data-name="Group 327" transform="translate(-244.5 -1721.689)">
      <g id="Group_304" data-name="Group 304" transform="translate(298 1767.377)">
        <g id="Group_285" data-name="Group 285" transform="translate(0 0)">
          <path id="file-alt" d="M0,19.33V68a7.036,7.036,0,0,0,7.035,7.035H49.242A7.036,7.036,0,0,0,56.277,68V7.035A7.036,7.036,0,0,0,49.242,0H19.33a7.035,7.035,0,0,0-4.968,2.066l-12.3,12.3A7.009,7.009,0,0,0,0,19.33ZM14.661,2.825V13.978H3.508L6.2,11.285l8.46-8.46Z" fill="none" stroke="#b3b3b3" stroke-width="2"/>
          <g id="Rectangle_15" data-name="Rectangle 15" transform="translate(14 21.623)" fill="none" stroke="#b3b3b3" stroke-width="2">
            <rect width="30" height="9" rx="2" stroke="none"/>
            <rect x="1" y="1" width="28" height="7" rx="1" fill="none"/>
          </g>
          <g id="Rectangle_19" data-name="Rectangle 19" transform="translate(14 35.623)" fill="none" stroke="#b3b3b3" stroke-width="2">
            <rect width="30" height="9" rx="2" stroke="none"/>
            <rect x="1" y="1" width="28" height="7" rx="1" fill="none"/>
          </g>
        </g>
      </g>
      <g id="Group_305" data-name="Group 305" transform="translate(328.757 1815.278)">
        <g id="Ellipse_322" data-name="Ellipse 322" transform="translate(0.243 -0.278)" fill="#fff" stroke="#b3b3b3" stroke-width="2">
          <ellipse cx="20.5" cy="21" rx="20.5" ry="21" stroke="none"/>
          <ellipse cx="20.5" cy="21" rx="19.5" ry="20" fill="none"/>
        </g>
        <path id="Path_6090" data-name="Path 6090" d="M559.175,2074.969s-.306,7.594,2.378,12.572,8.358,7.339,8.358,7.339,5.538-2.362,8.223-7.339,2.514-12.572,2.514-12.572a11.742,11.742,0,0,1-5.368,0,17.525,17.525,0,0,1-5.368-2.854,14.271,14.271,0,0,1-4.689,2.311A23.259,23.259,0,0,1,559.175,2074.969Z" transform="translate(-549.541 -2062.715)" fill="none" stroke="#b3b3b3" stroke-width="2"/>
      </g>
    </g>
  </g>
</svg>
