<svg xmlns="http://www.w3.org/2000/svg" width="119" height="119" viewBox="0 0 119 119">
  <g id="progress_bar" data-name="progress bar" transform="translate(-30 -31)">
    <g id="Group_1" data-name="Group 1" opacity="0">
      <rect id="Rectangle_1" data-name="Rectangle 1" width="119" height="119" transform="translate(30 31)" fill="#fff"/>
    </g>
    <g id="Group_323" data-name="Group 323" transform="translate(-0.57 -1586.271)">
      <g id="Rectangle_25" data-name="Rectangle 25" transform="translate(46.57 1664.271)" fill="#fff" stroke="#b3b3b3" stroke-width="2">
        <rect width="88" height="26" stroke="none"/>
        <rect x="1" y="1" width="86" height="24" fill="none"/>
      </g>
      <g id="Group_294" data-name="Group 294" transform="translate(54.506 1671.506)">
        <g id="Rectangle_26" data-name="Rectangle 26" transform="translate(0.064 -0.235)" fill="#fff" stroke="#b3b3b3" stroke-width="2">
          <rect width="19" height="13" stroke="none"/>
          <rect x="1" y="1" width="17" height="11" fill="none"/>
        </g>
        <g id="Rectangle_27" data-name="Rectangle 27" transform="translate(22.064 -0.235)" fill="#fff" stroke="#b3b3b3" stroke-width="2">
          <rect width="15" height="13" stroke="none"/>
          <rect x="1" y="1" width="13" height="11" fill="none"/>
        </g>
        <g id="Rectangle_28" data-name="Rectangle 28" transform="translate(41.064 -0.235)" fill="#fff" stroke="#b3b3b3" stroke-width="2">
          <rect width="11" height="13" stroke="none"/>
          <rect x="1" y="1" width="9" height="11" fill="none"/>
        </g>
        <g id="Rectangle_29" data-name="Rectangle 29" transform="translate(56.064 -0.235)" fill="#fff" stroke="#b3b3b3" stroke-width="2">
          <rect width="8" height="13" stroke="none"/>
          <rect x="1" y="1" width="6" height="11" fill="none"/>
        </g>
        <g id="Rectangle_30" data-name="Rectangle 30" transform="translate(67.064 -0.235)" fill="#fff" stroke="#b3b3b3" stroke-width="2">
          <rect width="7" height="13" stroke="none"/>
          <rect x="1" y="1" width="5" height="11" fill="none"/>
        </g>
      </g>
    </g>
  </g>
</svg>
