<svg xmlns="http://www.w3.org/2000/svg" width="119" height="119" viewBox="0 0 119 119">
  <g id="sms_sign_up" data-name="sms sign up" transform="translate(-30 -31)">
    <g id="Group_1" data-name="Group 1" opacity="0">
      <rect id="Rectangle_1" data-name="Rectangle 1" width="119" height="119" transform="translate(30 31)" fill="#fff"/>
    </g>
    <g id="SMS_SIGN_UP-2" data-name="SMS SIGN UP" transform="translate(-21 -1138.635)">
      <g id="Path_6077" data-name="Path 6077" transform="translate(59 1184)" fill="#fff">
        <path d="M 13.92631340026855 85.61346435546875 L 15.99701404571533 67.96575164794922 L 16.12802886962891 66.84920501708984 L 15.00382900238037 66.84920501708984 L 4.087299823760986 66.84920501708984 C 2.384957075119019 66.84920501708984 1 65.46424865722656 1 63.76190948486328 L 1 4.087308406829834 C 1 2.384965419769287 2.384957075119019 1.000008225440979 4.087299823760986 1.000008225440979 L 98.91269683837891 1.000008225440979 C 100.6150436401367 1.000008225440979 102 2.384965419769287 102 4.087308406829834 L 102 63.76190948486328 C 102 65.46424865722656 100.6150436401367 66.84920501708984 98.91269683837891 66.84920501708984 L 26.46384239196777 66.84920501708984 C 25.84385681152344 66.84920501708984 25.40511512756348 67.02522277832031 22.93101501464844 70.80461883544922 C 21.70684242248535 72.67463684082031 20.08898544311523 75.27828216552734 18.12234306335449 78.54322052001953 C 16.60614776611328 81.06037902832031 15.11068344116211 83.59275054931641 13.92631340026855 85.61346435546875 Z" stroke="none"/>
        <path d="M 4.087310791015625 1.999992370605469 C 2.936370849609375 1.999992370605469 2 2.936363220214844 2 4.087303161621094 L 2 63.76190185546875 C 2 64.912841796875 2.936370849609375 65.84921264648438 4.087310791015625 65.84921264648438 L 17.25221252441406 65.84921264648438 L 15.47127532958984 81.02738189697266 C 16.05358123779297 80.04761505126953 16.65812683105469 79.03600311279297 17.26575469970703 78.02723693847656 C 19.23880004882812 74.75164031982422 20.86337280273438 72.13731384277344 22.09433746337891 70.25691986083984 C 24.52132415771484 66.54949951171875 25.21553802490234 65.84921264648438 26.46384429931641 65.84921264648438 L 98.91268920898438 65.84921264648438 C 100.0636291503906 65.84921264648438 101 64.912841796875 101 63.76190185546875 L 101 4.087303161621094 C 101 2.936363220214844 100.0636291503906 1.999992370605469 98.91268920898438 1.999992370605469 L 4.087310791015625 1.999992370605469 M 4.087310791015625 -7.62939453125e-06 L 98.91268920898438 -7.62939453125e-06 C 101.1700439453125 -7.62939453125e-06 103 1.829948425292969 103 4.087303161621094 L 103 63.76190185546875 C 103 66.01925659179688 101.1700439453125 67.84921264648438 98.91268920898438 67.84921264648438 C 98.91268920898438 67.84921264648438 50.17020034790039 67.84921264648438 26.46384429931641 67.84921264648438 C 25.29170989990234 67.84921264648438 12.3731689453125 90.26918029785156 12.3731689453125 90.26918029785156 L 15.00382995605469 67.84921264648438 L 4.087310791015625 67.84921264648438 C 1.8299560546875 67.84921264648438 0 66.01925659179688 0 63.76190185546875 L 0 4.087303161621094 C 0 1.829948425292969 1.8299560546875 -7.62939453125e-06 4.087310791015625 -7.62939453125e-06 Z" stroke="none" fill="#b3b3b3"/>
      </g>
      <path id="Path_6078" data-name="Path 6078" d="M17.228-11.527a3.951,3.951,0,0,0-1.425-3.21,15.047,15.047,0,0,0-5.214-2.246,18.273,18.273,0,0,1-5.532-2.322,5.48,5.48,0,0,1-2.481-4.66,5.46,5.46,0,0,1,2.305-4.552,9.466,9.466,0,0,1,5.893-1.752,9.774,9.774,0,0,1,4.35.939A7.119,7.119,0,0,1,18.1-26.715a6.869,6.869,0,0,1,1.056,3.738H17.077A5.129,5.129,0,0,0,15.367-27a6.656,6.656,0,0,0-4.593-1.522,7.236,7.236,0,0,0-4.459,1.251,3.9,3.9,0,0,0-1.66,3.266A3.694,3.694,0,0,0,6.147-20.97,13.83,13.83,0,0,0,10.924-18.9,22.457,22.457,0,0,1,15.9-17.034a7.1,7.1,0,0,1,2.548,2.305,5.767,5.767,0,0,1,.855,3.168A5.517,5.517,0,0,1,17-6.934,9.817,9.817,0,0,1,10.924-5.19a11.912,11.912,0,0,1-4.736-.922A7.234,7.234,0,0,1,2.92-8.694,6.665,6.665,0,0,1,1.8-12.5H3.867A4.873,4.873,0,0,0,5.795-8.426a8.16,8.16,0,0,0,5.13,1.492A7.6,7.6,0,0,0,15.5-8.191,3.931,3.931,0,0,0,17.228-11.527Zm9.254-18.407,9,21.542L44.52-29.934H47.27V-5.525H45.208V-16.154l.168-10.9L36.289-5.525H34.7L25.644-26.967l.168,10.746v10.7H23.749V-29.934ZM67.269-11.527a3.951,3.951,0,0,0-1.425-3.21,15.047,15.047,0,0,0-5.214-2.246A18.273,18.273,0,0,1,55.1-19.306a5.48,5.48,0,0,1-2.481-4.66,5.46,5.46,0,0,1,2.305-4.552,9.466,9.466,0,0,1,5.893-1.752,9.774,9.774,0,0,1,4.35.939,7.119,7.119,0,0,1,2.976,2.615A6.869,6.869,0,0,1,69.2-22.977H67.118A5.129,5.129,0,0,0,65.409-27a6.656,6.656,0,0,0-4.593-1.522,7.236,7.236,0,0,0-4.459,1.251,3.9,3.9,0,0,0-1.66,3.266,3.694,3.694,0,0,0,1.492,3.039A13.83,13.83,0,0,0,60.966-18.9a22.457,22.457,0,0,1,4.979,1.862,7.1,7.1,0,0,1,2.548,2.305,5.767,5.767,0,0,1,.855,3.168,5.517,5.517,0,0,1-2.305,4.627A9.817,9.817,0,0,1,60.966-5.19a11.912,11.912,0,0,1-4.736-.922,7.234,7.234,0,0,1-3.269-2.582A6.665,6.665,0,0,1,51.846-12.5h2.062a4.873,4.873,0,0,0,1.928,4.074,8.16,8.16,0,0,0,5.13,1.492,7.6,7.6,0,0,0,4.577-1.257A3.931,3.931,0,0,0,67.269-11.527Z" transform="translate(75.02 1235.303)" fill="#b3b3b3"/>
    </g>
  </g>
</svg>
