<svg xmlns="http://www.w3.org/2000/svg" width="119" height="119" viewBox="0 0 119 119">
  <g id="survey" transform="translate(-30 -31)">
    <g id="Group_1" data-name="Group 1" opacity="0">
      <rect id="Rectangle_1" data-name="Rectangle 1" width="119" height="119" transform="translate(30 31)" fill="#fff"/>
    </g>
    <g id="Group_316" data-name="Group 316" transform="translate(-4 -1271.367)">
      <g id="Group_285" data-name="Group 285" transform="translate(-136.65 510.799)">
        <path id="file-alt" d="M67.7,23.254V81.8a8.465,8.465,0,0,1-8.462,8.462H8.462A8.465,8.465,0,0,1,0,81.8V8.462A8.465,8.465,0,0,1,8.462,0H44.445a8.463,8.463,0,0,1,5.977,2.486L65.213,17.277A8.432,8.432,0,0,1,67.7,23.254ZM50.062,3.4V16.815H63.479l-3.24-3.24L50.062,3.4Z" transform="translate(196.301 805.934)" fill="none" stroke="#b3b3b3" stroke-width="2"/>
        <g id="Rectangle_15" data-name="Rectangle 15" transform="translate(220 833.401)" fill="none" stroke="#b3b3b3" stroke-width="2">
          <rect width="36" height="11" rx="2" stroke="none"/>
          <rect x="1" y="1" width="34" height="9" rx="1" fill="none"/>
        </g>
        <g id="Rectangle_23" data-name="Rectangle 23" transform="translate(201.649 833.401)" fill="none" stroke="#b3b3b3" stroke-width="2">
          <rect width="14.913" height="11" rx="2" stroke="none"/>
          <rect x="1" y="1" width="12.913" height="9" rx="1" fill="none"/>
        </g>
        <g id="Rectangle_19" data-name="Rectangle 19" transform="translate(220 852.067)" fill="none" stroke="#b3b3b3" stroke-width="2">
          <rect width="36" height="11" rx="2" stroke="none"/>
          <rect x="1" y="1" width="34" height="9" rx="1" fill="none"/>
        </g>
        <g id="Rectangle_22" data-name="Rectangle 22" transform="translate(201.649 852.067)" fill="none" stroke="#b3b3b3" stroke-width="2">
          <rect width="14.913" height="11" rx="2" stroke="none"/>
          <rect x="1" y="1" width="12.913" height="9" rx="1" fill="none"/>
        </g>
        <g id="Rectangle_20" data-name="Rectangle 20" transform="translate(220 870.733)" fill="none" stroke="#b3b3b3" stroke-width="2">
          <rect width="36" height="11" rx="2" stroke="none"/>
          <rect x="1" y="1" width="34" height="9" rx="1" fill="none"/>
        </g>
        <g id="Rectangle_21" data-name="Rectangle 21" transform="translate(201.649 870.733)" fill="none" stroke="#b3b3b3" stroke-width="2">
          <rect width="14.913" height="11" rx="2" stroke="none"/>
          <rect x="1" y="1" width="12.913" height="9" rx="1" fill="none"/>
        </g>
      </g>
      <path id="Path_6079" data-name="Path 6079" d="M162.779,1177.576l1.63,1.567,3.9-3.775" transform="translate(-92.797 172.389)" fill="none" stroke="#b3b3b3" stroke-width="1"/>
      <path id="Path_6080" data-name="Path 6080" d="M162.779,1177.576l1.63,1.567,3.9-3.775" transform="translate(-92.797 190.389)" fill="none" stroke="#b3b3b3" stroke-width="1"/>
    </g>
  </g>
</svg>
